<svg width="16" height="16" viewBox="0 0 16 16" fill="none" xmlns="http://www.w3.org/2000/svg">
<path fill-rule="evenodd" clip-rule="evenodd" d="M5.33301 4.00016H3.99967V3.3335H2.66634V5.3335H13.333V3.3335H11.9997V4.00016H10.6663V3.3335H5.33301V4.00016ZM13.333 6.66683H2.66634V13.3335H13.333V6.66683ZM10.6663 2.00016H5.33301V1.3335H3.99967V2.00016H2.66634C1.92996 2.00016 1.33301 2.59712 1.33301 3.3335V13.3335C1.33301 14.0699 1.92996 14.6668 2.66634 14.6668H13.333C14.0694 14.6668 14.6663 14.0699 14.6663 13.3335V3.3335C14.6663 2.59712 14.0694 2.00016 13.333 2.00016H11.9997V1.3335H10.6663V2.00016ZM5.99967 9.3335H4.66634V8.00016H5.99967V9.3335ZM7.33301 9.3335H8.66634V8.00016H7.33301V9.3335ZM9.99967 9.3335V8.00016H11.333V9.3335H9.99967ZM4.66634 12.0002H5.99967V10.6668H4.66634V12.0002ZM8.66634 12.0002H7.33301V10.6668H8.66634V12.0002Z" fill="#D13980"/>
</svg>
