<svg width="16" height="16" viewBox="0 0 16 16" fill="none" xmlns="http://www.w3.org/2000/svg">
<path fill-rule="evenodd" clip-rule="evenodd" d="M14.6663 13.3335V8.66683H13.333V13.3335H2.66634V2.66683H7.33301V1.3335H2.66634C1.92996 1.3335 1.33301 1.93045 1.33301 2.66683V13.3335C1.33301 14.0699 1.92996 14.6668 2.66634 14.6668H13.333C14.0694 14.6668 14.6663 14.0699 14.6663 13.3335ZM12.7851 1.81578C12.4795 1.50778 12.0611 1.3335 11.6246 1.3335C11.1886 1.3335 10.7706 1.50738 10.4633 1.81658L4.88401 7.39578C4.38545 7.83505 4.05863 8.48872 4.00184 9.1917L3.99967 11.335V12.0017H6.75607C7.51227 11.9499 8.17236 11.6198 8.63801 11.0827L14.1857 5.53739C14.4935 5.2296 14.6664 4.81216 14.6664 4.37688C14.6664 3.94161 14.4935 3.52416 14.1857 3.21638L12.7851 1.81578ZM6.709 10.67C7.06515 10.6448 7.39667 10.4791 7.66287 10.1746L11.7041 6.13331L9.86795 4.29701L5.79708 8.36656C5.52698 8.60544 5.35988 8.93965 5.33301 9.24538V10.6688L6.709 10.67ZM10.8109 3.35435L12.6469 5.1905L13.2429 4.59458C13.3006 4.53684 13.333 4.45853 13.333 4.37688C13.333 4.29523 13.3006 4.21692 13.2429 4.15919L11.8404 2.75673C11.7833 2.69919 11.7056 2.66683 11.6246 2.66683C11.5435 2.66683 11.4658 2.69919 11.4087 2.75673L10.8109 3.35435Z" fill="#2E2E54"/>
</svg>
