<svg width="24" height="24" viewBox="0 0 24 24" fill="none" xmlns="http://www.w3.org/2000/svg">
<g id="icon / thumbs-up">
<path id="icon" fill-rule="evenodd" clip-rule="evenodd" d="M22 11.999C22 10.3165 20.8696 8.99902 19 8.99902H15.927L15.9548 8.9233C15.9826 8.84812 16.0609 8.64165 16.137 8.44114L16.1371 8.44086L16.1375 8.43993C16.2046 8.26291 16.2699 8.09075 16.2971 8.01793C16.4872 7.50758 16.626 7.09638 16.7382 6.68915C16.9079 6.07366 17 5.51914 17 4.99902C17 3.52702 16.0919 2.61274 14.7483 2.22151C14.1423 2.04505 13.6148 1.99893 13 1.99902H12.5205L12.2203 2.37291C11.8811 2.79526 11.215 3.55643 10.447 4.43399L10.447 4.43403C9.03026 6.05294 7.2669 8.06793 6.57035 9.08242C6.38961 9.02874 6.19817 8.99992 6 8.99992H4C2.89543 8.99992 2 9.89535 2 10.9999V19.9999C2 21.1045 2.89543 21.9999 4 21.9999H6C6.68712 21.9999 7.29331 21.6534 7.65337 21.1256C7.95674 21.3218 8.29522 21.4856 8.66312 21.6172C9.50544 21.9186 10.3408 22.0111 11.0344 21.9984L18 21.999C20.7551 21.999 22 17.9426 22 11.999ZM9.33688 19.7341C8.45197 19.4175 8 18.9013 8 17.999V10.9999V10.999C8 10.7588 8.04443 10.5461 8.14171 10.319C8.31645 9.91102 9.90193 8.10216 11.4047 6.3877L11.4047 6.38766C12.1803 5.50283 12.9338 4.64314 13.46 4.01415C13.7114 4.03301 13.9484 4.07165 14.1891 4.14176C14.7622 4.30862 15 4.54805 15 4.99902C15 5.31561 14.9359 5.70134 14.8101 6.15763C14.7161 6.4986 14.5944 6.85939 14.4229 7.31969C14.3986 7.38502 14.3378 7.54512 14.2733 7.71534L14.2731 7.7158C14.1944 7.92306 14.1102 8.14522 14.079 8.22957C13.9489 8.58119 13.8633 8.84009 13.8047 9.07534C13.5555 10.0754 13.8055 10.999 15 10.999H19C19.6912 10.999 20 11.3589 20 11.999C20 16.7898 19.0151 19.999 18 19.999H11L10.9631 19.9996C10.5254 20.0075 9.91062 19.9394 9.33688 19.7341ZM4 19.9999V10.9999H6V19.9999H4Z" fill="black"/>
</g>
</svg>
